<svg width="502" height="495" viewBox="0 0 502 495" fill="none" xmlns="http://www.w3.org/2000/svg">
<g clip-path="url(#clip0_151_26)" filter="url(#filter0_i_151_26)">
<path d="M247.389 495.205C384.004 495.205 494.97 384.43 494.97 247.814C494.97 111.199 384.004 0.234863 247.389 0.234863C110.774 0.234863 0 111.199 0 247.814C0 384.43 110.774 495.205 247.389 495.205ZM247.389 459.862C130.155 459.862 35.3414 365.049 35.3414 247.814C35.3414 130.58 130.155 35.7662 247.389 35.7662C364.623 35.7662 459.438 130.58 459.438 247.814C459.438 365.049 364.623 459.862 247.389 459.862Z" fill="#F2F2F2" fill-opacity="0.85"/>
<path d="M235.661 311.136C242.587 315.986 249.844 315.169 254.47 308.282L319.472 211.939C321.577 208.793 324.242 207.513 327.712 208.173C342.278 211.098 350.459 208.962 360.165 193.836L394.115 140.437C396.412 136.736 395.779 133.147 392.415 130.791C389.116 128.482 385.613 129.273 383.073 132.901L348.378 183.714C346.253 186.749 343.093 187.19 340.322 185.25C337.552 183.31 336.774 180.21 338.806 177.307L374.438 124.594C376.82 121.052 376.207 117.575 372.843 115.219C369.479 112.864 366.002 113.477 363.488 116.927L326.075 168.393C324.042 171.295 320.863 171.624 318.092 169.684C315.388 167.791 314.722 164.67 316.846 161.636L352.663 111.608C355.203 107.98 354.814 104.463 351.516 102.154C348.152 99.7983 344.563 100.431 341.871 103.855L303.303 154.021C292.344 168.269 293.2 176.733 300.864 189.374C302.671 192.409 302.447 195.398 300.21 198.452L231.909 292.485C227.02 299.188 228.734 306.286 235.661 311.136Z" fill="white"/>
<path d="M332.825 160.049C335.158 156.961 339.516 156.273 342.687 158.493C345.847 160.705 346.697 165.017 344.615 168.264L201.667 391.161C196.356 399.443 185.227 401.65 177.157 396.024C169.091 390.399 167.312 379.2 173.238 371.353L332.825 160.049Z" fill="white"/>
<path d="M119.051 320.803C116.738 317.66 117.225 313.269 120.17 310.709C123.123 308.142 127.554 308.28 130.341 311.025L192.786 372.525C198.748 378.397 198.495 388.089 192.234 393.641C185.872 399.284 176.038 398.243 170.998 391.394L119.051 320.803Z" fill="white"/>
</g>
<defs>
<filter id="filter0_i_151_26" x="0" y="0" width="502" height="499" filterUnits="userSpaceOnUse" color-interpolation-filters="sRGB">
<feFlood flood-opacity="0" result="BackgroundImageFix"/>
<feBlend mode="normal" in="SourceGraphic" in2="BackgroundImageFix" result="shape"/>
<feColorMatrix in="SourceAlpha" type="matrix" values="0 0 0 0 0 0 0 0 0 0 0 0 0 0 0 0 0 0 127 0" result="hardAlpha"/>
<feOffset dy="4"/>
<feGaussianBlur stdDeviation="2"/>
<feComposite in2="hardAlpha" operator="arithmetic" k2="-1" k3="1"/>
<feColorMatrix type="matrix" values="0 0 0 0 0 0 0 0 0 0 0 0 0 0 0 0 0 0 0.25 0"/>
<feBlend mode="normal" in2="shape" result="effect1_innerShadow_151_26"/>
</filter>
<clipPath id="clip0_151_26">
<rect width="502" height="495" fill="white"/>
</clipPath>
</defs>
</svg>
