<svg width="915" height="915" viewBox="0 0 915 915" fill="none" xmlns="http://www.w3.org/2000/svg">
<path d="M208.671 804.653H300.695C309.52 804.653 315.823 806.857 322.126 813.476L387.676 878.086C435.58 926.621 478.757 926.305 526.661 878.086L592.211 813.476C598.83 806.857 605.133 804.653 613.643 804.653H705.669C773.739 804.653 804.626 774.081 804.626 705.692V613.979C804.626 605.153 806.831 598.85 813.133 592.231L878.057 526.991C926.591 478.773 926.274 435.595 878.057 387.689L813.133 322.137C806.831 315.833 804.626 309.53 804.626 300.705V208.678C804.626 140.918 774.056 110.032 705.669 110.032L613.643 110.032C605.133 110.032 598.83 107.51 592.211 101.207L526.661 36.2833C478.757 -12.2519 435.58 -11.9367 387.363 36.2833L322.126 101.207C315.823 107.51 309.52 110.032 300.695 110.032H208.671C140.598 110.032 110.028 140.287 110.028 208.678V300.705C110.028 309.53 107.507 315.833 101.204 322.137L36.2821 387.689C-12.2515 435.595 -11.9363 478.773 36.2821 526.991L101.204 592.231C107.507 598.85 110.028 605.153 110.028 613.979L110.028 705.692C110.028 773.765 140.598 804.653 208.671 804.653Z" fill="#FF6300" fill-opacity="0.85"/>
</svg>
