<svg width="868" height="868" viewBox="0 0 868 868" fill="none" xmlns="http://www.w3.org/2000/svg">
<path d="M61.7456 643.736L145.148 682.629C153.146 686.358 157.927 691.02 160.842 699.683L192.946 785.943C215.851 850.176 255.116 868.137 318.909 844.682L405.622 813.829C414.418 810.628 421.062 811.294 428.775 814.89L512.178 853.783C573.871 882.552 614.784 867.899 643.686 805.917L682.444 722.797C686.174 714.797 690.836 710.017 699.345 706.681L785.757 674.993C850.12 651.804 868.081 612.538 844.626 548.743L813.488 461.893C810.44 453.517 811.106 446.872 814.835 438.875L853.726 355.469C882.362 294.058 867.708 253.145 805.728 224.243L722.324 185.349C714.612 181.753 709.965 176.804 706.63 168.294L674.659 81.7494C651.754 17.5158 612.49 -0.446232 548.412 22.8778L461.85 54.1472C453.474 57.196 446.696 56.8174 438.698 53.0879L355.296 14.1954C293.6 -14.5746 253.108 -0.0733313 224.206 61.9095L185.315 145.315C181.586 153.313 176.637 157.96 168.261 161.008L81.7189 192.981C17.4874 215.887 -0.474004 255.152 22.8493 319.232L54.1178 405.797C57.0329 414.46 56.6545 421.238 52.9243 429.237L14.1661 512.357C-14.6018 574.052 0.0502887 614.966 61.7456 643.736Z" fill="#FFB100" fill-opacity="0.85"/>
</svg>
