<svg width="928" height="928" viewBox="0 0 928 928" fill="none" xmlns="http://www.w3.org/2000/svg">
<path d="M66.0128 688.059L155.18 729.629C163.73 733.616 168.841 738.598 171.958 747.857L206.281 840.057C230.769 908.713 272.748 927.911 340.95 902.841L433.656 869.863C443.06 866.441 450.163 867.153 458.409 870.997L547.577 912.568C613.534 943.318 657.275 927.655 688.174 861.406L729.611 772.563C733.599 764.013 738.582 758.903 747.68 755.338L840.064 721.468C908.876 696.682 928.077 654.713 903.002 586.525L869.711 493.695C866.452 484.742 867.165 477.641 871.152 469.092L912.731 379.944C943.346 314.304 927.679 270.575 861.416 239.682L772.247 198.111C764.002 194.267 759.034 188.977 755.468 179.881L721.287 87.378C696.799 18.7218 654.821 -0.476986 586.315 24.453L493.77 57.8754C484.815 61.1341 477.569 60.7294 469.018 56.7431L379.851 15.1727C313.892 -15.5781 270.602 -0.078389 239.702 66.1721L198.123 155.32C194.136 163.869 188.845 168.836 179.89 172.094L87.3666 206.269C18.6958 230.751 -0.506984 272.72 24.4283 341.212L57.8579 433.737C60.9745 442.996 60.5699 450.241 56.5819 458.791L15.145 547.634C-15.6112 613.577 0.0535272 657.308 66.0128 688.059Z" fill="#FFB800" fill-opacity="0.75"/>
</svg>
