<svg width="978" height="978" viewBox="0 0 978 978" fill="none" xmlns="http://www.w3.org/2000/svg">
<path d="M223.093 860.055H321.478C330.912 860.055 337.651 862.411 344.389 869.486L414.47 938.545C465.685 990.422 511.846 990.084 563.061 938.545L633.141 869.486C640.218 862.411 646.956 860.055 656.054 860.055H754.441C827.216 860.055 860.238 827.379 860.238 754.281V656.253C860.238 646.819 862.594 640.082 869.333 633.007L938.744 563.276C990.632 511.737 990.293 465.587 938.744 414.383L869.333 344.316C862.594 337.579 860.238 330.842 860.238 321.41V223.046C860.238 150.62 827.554 117.608 754.441 117.608H656.054C646.956 117.608 640.218 114.913 633.141 108.175L563.061 38.7815C511.846 -13.0955 465.685 -12.7586 414.136 38.7815L344.389 108.175C337.651 114.913 330.912 117.608 321.478 117.608H223.093C150.315 117.608 117.633 149.947 117.633 223.046V321.41C117.633 330.842 114.937 337.579 108.198 344.316L38.7897 414.383C-13.0982 465.587 -12.7613 511.737 38.7897 563.276L108.198 633.007C114.937 640.082 117.633 646.819 117.633 656.253V754.281C117.633 827.04 150.315 860.055 223.093 860.055Z" fill="#FF6B00" fill-opacity="0.75"/>
</svg>
